<?xml version="1.0" encoding="UTF-8" standalone="no"?>
<svg
   xmlns:dc="http://purl.org/dc/elements/1.1/"
   xmlns:cc="http://creativecommons.org/ns#"
   xmlns:rdf="http://www.w3.org/1999/02/22-rdf-syntax-ns#"
   xmlns:svg="http://www.w3.org/2000/svg"
   xmlns="http://www.w3.org/2000/svg"
   xmlns:sodipodi="http://sodipodi.sourceforge.net/DTD/sodipodi-0.dtd"
   xmlns:inkscape="http://www.inkscape.org/namespaces/inkscape"
   viewBox="0 0 24 24"
   fill="black"
   width="18px"
   height="18px"
   version="1.1"
   id="svg6"
   sodipodi:docname="ic_base.svg"
   inkscape:version="0.92.4 (5da689c313, 2019-01-14)">
  <metadata
     id="metadata12">
    <rdf:RDF>
      <cc:Work
         rdf:about="">
        <dc:format>image/svg+xml</dc:format>
        <dc:type
           rdf:resource="http://purl.org/dc/dcmitype/StillImage" />
      </cc:Work>
    </rdf:RDF>
  </metadata>
  <defs
     id="defs10" />
  <sodipodi:namedview
     pagecolor="#ffffff"
     bordercolor="#666666"
     borderopacity="1"
     objecttolerance="10"
     gridtolerance="10"
     guidetolerance="10"
     inkscape:pageopacity="0"
     inkscape:pageshadow="2"
     inkscape:window-width="1920"
     inkscape:window-height="1051"
     id="namedview8"
     showgrid="false"
     inkscape:zoom="26.222222"
     inkscape:cx="-3.4956789"
     inkscape:cy="10.573657"
     inkscape:window-x="-9"
     inkscape:window-y="-9"
     inkscape:window-maximized="1"
     inkscape:current-layer="svg6" />
  <path
     d="M0 0h24v24H0z"
     fill="none"
     id="path2" />
  <path
     style="stroke-width:0.75;fill:#ffffff"
     d="M 4.5 1.5 C 3.675 1.5 3 2.175 3 3 L 3 15 C 3 15.825 3.675 16.5 4.5 16.5 L 13.5 16.5 C 14.325 16.5 15 15.825 15 15 L 15 3 C 15 2.175 14.325 1.5 13.5 1.5 L 4.5 1.5 z M 4.5 3 L 8.25 3 L 8.25 9 L 6.375 7.875 L 4.5 9 L 4.5 3 z M 12.847656 10.240234 L 13.423828 10.240234 L 13.423828 15.240234 L 12.896484 15.240234 L 12.867188 14.861328 C 12.678385 15.156467 12.408203 15.304687 12.056641 15.304688 C 11.692057 15.304688 11.405599 15.162977 11.197266 14.880859 C 10.991102 14.596571 10.887152 14.196179 10.882812 13.679688 L 10.882812 13.318359 C 10.882812 12.775824 10.983724 12.362413 11.185547 12.078125 C 11.38954 11.793837 11.680773 11.652344 12.060547 11.652344 C 12.396918 11.652344 12.658854 11.789062 12.847656 12.0625 L 12.847656 10.240234 z M 7.3964844 11.652344 C 7.7892799 11.652344 8.0625 11.823352 8.21875 12.164062 C 8.440104 11.823352 8.7495658 11.652344 9.1445312 11.652344 C 9.7934028 11.652344 10.125434 12.057726 10.140625 12.867188 L 10.140625 15.240234 L 9.5664062 15.240234 L 9.5664062 12.921875 C 9.5664062 12.665798 9.5208335 12.47526 9.4296875 12.351562 C 9.338542 12.225695 9.185764 12.164063 8.96875 12.164062 C 8.795139 12.164062 8.6534289 12.230686 8.5449219 12.365234 C 8.4364149 12.499783 8.3728301 12.670573 8.3554688 12.878906 L 8.3554688 15.240234 L 7.7773438 15.240234 L 7.7773438 12.896484 C 7.7708338 12.408203 7.5722661 12.164063 7.1816406 12.164062 C 6.890842 12.164062 6.6857639 12.308811 6.5664062 12.599609 L 6.5664062 15.240234 L 5.9921875 15.240234 L 5.9921875 11.716797 L 6.5332031 11.716797 L 6.546875 12.042969 C 6.7617188 11.782552 7.0449221 11.652344 7.3964844 11.652344 z M 12.210938 12.164062 C 11.946181 12.164063 11.753906 12.256727 11.636719 12.443359 C 11.519531 12.627821 11.461154 12.91276 11.458984 13.296875 L 11.458984 13.648438 C 11.458984 14.043401 11.517578 14.332899 11.634766 14.519531 C 11.751953 14.703993 11.942274 14.796875 12.207031 14.796875 C 12.49349 14.796875 12.706597 14.65191 12.847656 14.363281 L 12.847656 12.585938 C 12.700087 12.30382 12.488714 12.164063 12.210938 12.164062 z M 4.6425781 14.558594 C 4.7662761 14.558594 4.858941 14.594618 4.921875 14.664062 C 4.9869792 14.733507 5.0195313 14.819661 5.0195312 14.923828 C 5.0195312 15.023654 4.9869792 15.106554 4.921875 15.173828 C 4.858941 15.241103 4.7662761 15.275391 4.6425781 15.275391 C 4.5188802 15.275391 4.4242622 15.241103 4.3613281 15.173828 C 4.3005642 15.106554 4.2714844 15.023654 4.2714844 14.923828 C 4.2714844 14.819661 4.3005642 14.733507 4.3613281 14.664062 C 4.4242622 14.594618 4.5188802 14.558594 4.6425781 14.558594 z "
     id="path4"
     transform="scale(1.3333333)" />
  <g
     aria-label=".md"
     style="font-style:normal;font-variant:normal;font-weight:normal;font-stretch:normal;font-size:53.33333206px;line-height:1.25;font-family:'Roboto Condensed';-inkscape-font-specification:'Roboto Condensed, ';letter-spacing:0px;word-spacing:0px;fill:#000000;fill-opacity:1;stroke:none;stroke-width:1.33333325"
     id="text824"
     transform="translate(-0.20338983,0.40677966)" />
</svg>
